<svg width="30" height="30" viewBox="0 0 30 30" fill="none" xmlns="http://www.w3.org/2000/svg">
<path d="M15 4.16016C15.4854 4.16016 15.8789 3.76664 15.8789 3.28125V0.878906C15.8789 0.393516 15.4854 0 15 0C14.5146 0 14.1211 0.393516 14.1211 0.878906V3.28125C14.1211 3.76664 14.5146 4.16016 15 4.16016ZM24.9964 3.12855C24.6533 2.78531 24.0967 2.78531 23.7535 3.12855L21.8785 5.00355C21.5353 5.34674 21.5353 5.90326 21.8785 6.2465C22.2217 6.58975 22.7782 6.58975 23.1214 6.2465L24.9964 4.3715C25.3397 4.02826 25.3397 3.47174 24.9964 3.12855ZM8.12145 6.24645C8.46469 5.90326 8.46469 5.34674 8.12145 5.0035L6.24645 3.1285C5.90326 2.78525 5.34674 2.78525 5.0035 3.1285C4.66025 3.47168 4.66025 4.0282 5.0035 4.37145L6.8785 6.24645C7.2218 6.58975 7.77826 6.58969 8.12145 6.24645ZM15 6.15234C10.1214 6.15234 6.15234 10.1214 6.15234 15C6.15234 19.523 10.3711 21.737 10.3711 24.375H14.1211V19.953C13.0324 19.5853 12.2461 18.5549 12.2461 17.3438C12.2461 16.8584 12.6396 16.4648 13.125 16.4648C13.6104 16.4648 14.0039 16.8584 14.0039 17.3438C14.0039 17.893 14.4507 18.3398 15 18.3398C15.5493 18.3398 15.9961 17.893 15.9961 17.3438C15.9961 16.8584 16.3896 16.4648 16.875 16.4648C17.3604 16.4648 17.7539 16.8584 17.7539 17.3438C17.7539 18.5549 16.9676 19.5853 15.8789 19.953V24.375H19.6289C19.6289 21.7361 23.8477 19.5248 23.8477 15C23.8477 10.1214 19.8786 6.15234 15 6.15234ZM10.3711 27.2461C10.3711 28.7646 11.6065 30 13.125 30H16.875C18.3935 30 19.6289 28.7646 19.6289 27.2461V26.1328H10.3711V27.2461Z" fill="#6699FF"/>
</svg>
