<svg width="9" height="9" viewBox="0 0 9 9" fill="none" xmlns="http://www.w3.org/2000/svg">
<path d="M8.42403 5.21998C8.42403 5.33998 8.36403 5.39998 8.24403 5.39998H5.50803C5.38803 5.39998 5.32803 5.45998 5.32803 5.57998V8.29798C5.32803 8.41798 5.26803 8.47798 5.14803 8.47798H3.96003C3.84003 8.47798 3.78003 8.41798 3.78003 8.29798V5.57998C3.78003 5.45998 3.72003 5.39998 3.60003 5.39998H0.882026C0.762026 5.39998 0.702026 5.33998 0.702026 5.21998V4.03198C0.702026 3.91198 0.762026 3.85198 0.882026 3.85198H3.60003C3.72003 3.85198 3.78003 3.79198 3.78003 3.67198V0.935982C3.78003 0.815982 3.84003 0.755981 3.96003 0.755981H5.14803C5.26803 0.755981 5.32803 0.815982 5.32803 0.935982V3.67198C5.32803 3.79198 5.38803 3.85198 5.50803 3.85198H8.24403C8.36403 3.85198 8.42403 3.91198 8.42403 4.03198V5.21998Z" fill="#051430"/>
</svg>
