<svg width="44" height="44" viewBox="0 0 44 44" fill="none" xmlns="http://www.w3.org/2000/svg">
<g filter="url(#filter0_i_1_235)">
<rect x="2" y="2" width="40" height="40" rx="20" fill="#1F1F20"/>
</g>
<rect x="1" y="1" width="42" height="42" rx="21" stroke="url(#paint0_linear_1_235)" stroke-width="2"/>
<rect x="1" y="1" width="42" height="42" rx="21" stroke="url(#paint1_linear_1_235)" stroke-width="2"/>
<g clip-path="url(#clip0_1_235)">
<path d="M23.4894 20.7749L29.3177 14H27.9366L22.8759 19.8826L18.8339 14H14.172L20.2842 22.8955L14.172 30H15.5532L20.8974 23.7878L25.166 30H29.828L23.4891 20.7749H23.4894ZM21.5977 22.9738L20.9784 22.0881L16.0509 15.0397H18.1723L22.1489 20.728L22.7682 21.6137L27.9372 29.0075H25.8158L21.5977 22.9742V22.9738Z" fill="#B0B0B0"/>
</g>
<defs>
<filter id="filter0_i_1_235" x="0" y="0" width="50" height="51" filterUnits="userSpaceOnUse" color-interpolation-filters="sRGB">
<feFlood flood-opacity="0" result="BackgroundImageFix"/>
<feBlend mode="normal" in="SourceGraphic" in2="BackgroundImageFix" result="shape"/>
<feColorMatrix in="SourceAlpha" type="matrix" values="0 0 0 0 0 0 0 0 0 0 0 0 0 0 0 0 0 0 127 0" result="hardAlpha"/>
<feOffset dx="6" dy="7"/>
<feGaussianBlur stdDeviation="7.5"/>
<feComposite in2="hardAlpha" operator="arithmetic" k2="-1" k3="1"/>
<feColorMatrix type="matrix" values="0 0 0 0 0 0 0 0 0 0 0 0 0 0 0 0 0 0 0.5 0"/>
<feBlend mode="normal" in2="shape" result="effect1_innerShadow_1_235"/>
</filter>
<linearGradient id="paint0_linear_1_235" x1="40.5" y1="41" x2="20.3107" y2="25.1053" gradientUnits="userSpaceOnUse">
<stop stop-color="#555454"/>
<stop offset="1" stop-opacity="0"/>
</linearGradient>
<linearGradient id="paint1_linear_1_235" x1="6.5" y1="5.5" x2="29.268" y2="21.0696" gradientUnits="userSpaceOnUse">
<stop stop-color="#555454"/>
<stop offset="1" stop-opacity="0"/>
</linearGradient>
<clipPath id="clip0_1_235">
<rect width="16" height="16" fill="white" transform="translate(14 14)"/>
</clipPath>
</defs>
</svg>
