<svg width="30" height="30" viewBox="0 0 30 30" fill="none" xmlns="http://www.w3.org/2000/svg">
<g clip-path="url(#clip0_1_471)">
<path d="M25.275 26.25C24.9895 26.2583 24.7097 26.1686 24.4822 25.9957C24.2548 25.8229 24.0934 25.5773 24.025 25.3C23.4622 23.07 22.2228 21.0689 20.477 19.5715C18.7312 18.0742 16.5647 17.1541 14.275 16.9375V18.3375C14.2748 18.7753 14.1454 19.2034 13.903 19.568C13.6607 19.9327 13.3161 20.2177 12.9125 20.3875C12.4748 20.5887 11.9883 20.6591 11.5116 20.5904C11.0348 20.5216 10.588 20.3166 10.225 20L3.9 14.4875C3.65746 14.2809 3.46266 14.0242 3.32908 13.735C3.19549 13.4458 3.12631 13.131 3.12631 12.8125C3.12631 12.4939 3.19549 12.1791 3.32908 11.8899C3.46266 11.6007 3.65746 11.344 3.9 11.1375L10.225 5.61247C10.5928 5.29036 11.047 5.08316 11.5313 5.01651C12.0156 4.94986 12.5089 5.02668 12.95 5.23747C13.3536 5.4072 13.6982 5.69224 13.9405 6.0569C14.1829 6.42156 14.3123 6.84962 14.3125 7.28747V8.74997C17.7078 9.01248 20.8813 10.5381 23.207 13.0257C25.5326 15.5133 26.8414 18.7822 26.875 22.1875C26.8733 23.2369 26.7432 24.2822 26.4875 25.3C26.4191 25.5773 26.2577 25.8229 26.0303 25.9957C25.8028 26.1686 25.523 26.2583 25.2375 26.25H25.275Z" fill="#6699FF"/>
</g>
<defs>
<clipPath id="clip0_1_471">
<rect width="30" height="30" fill="white"/>
</clipPath>
</defs>
</svg>
